<svg xmlns="http://www.w3.org/2000/svg" version="1.1" xmlns:xlink="http://www.w3.org/1999/xlink" xmlns:svgjs="http://svgjs.com/svgjs" width="100" height="100" x="0" y="0" viewBox="0 0 512.001 512.001" style="enable-background:new 0 0 512 512" xml:space="preserve" class=""><g>
<g xmlns="http://www.w3.org/2000/svg">
	<g>
		<path d="M501.898,119.373h-11.73c-0.795-2.19-1.687-4.345-2.674-6.454l8.296-8.294c3.938-3.938,3.938-10.348-0.001-14.286    l-23.358-23.357c-1.907-1.909-4.444-2.961-7.144-2.961c-2.697,0-5.232,1.05-7.144,2.958l-8.294,8.294    c-2.109-0.986-4.264-1.879-6.454-2.673V60.869c0-5.569-4.531-10.101-10.102-10.101h-33.037c-5.57,0-10.103,4.53-10.103,10.101    v11.731c-2.19,0.794-4.344,1.687-6.453,2.673l-8.294-8.294c-3.94-3.938-10.349-3.937-14.287,0l-23.36,23.36    c-3.938,3.938-3.938,10.348,0,14.285l8.295,8.297c-0.986,2.108-1.879,4.263-2.673,6.453h-11.732    c-5.569,0-10.101,4.531-10.101,10.102v33.038c0,5.569,4.53,10.102,10.101,10.102h11.732c0.794,2.19,1.687,4.345,2.673,6.454    l-8.295,8.295c-1.907,1.908-2.958,4.444-2.958,7.143s1.051,5.234,2.958,7.142l23.36,23.362c3.94,3.938,10.349,3.938,14.287-0.001    l8.294-8.294c2.108,0.987,4.263,1.879,6.453,2.674v11.73c0,5.569,4.531,10.102,10.103,10.102h33.037    c5.569,0,10.102-4.531,10.102-10.102v-11.73c2.19-0.795,4.345-1.687,6.454-2.674l8.297,8.297c1.908,1.906,4.443,2.956,7.141,2.956    c2.699,0,5.236-1.052,7.142-2.958l23.361-23.361c1.907-1.908,2.958-4.444,2.958-7.143c0-2.699-1.051-5.234-2.958-7.143    l-8.296-8.294c0.987-2.109,1.88-4.264,2.674-6.454h11.73c5.57,0,10.103-4.531,10.103-10.102v-33.038    C512,123.905,507.469,119.373,501.898,119.373z M496.999,157.614h-12.295c-3.361,0-6.312,2.236-7.221,5.472    c-1.346,4.79-3.262,9.417-5.695,13.751c-1.646,2.932-1.142,6.6,1.235,8.978l8.694,8.693l-16.433,16.433l-8.693-8.694    c-2.379-2.378-6.047-2.882-8.979-1.236c-4.333,2.435-8.96,4.352-13.749,5.696c-3.236,0.909-5.473,3.859-5.473,7.221v12.294    h-23.238v-12.294c0-3.361-2.236-6.312-5.472-7.221c-4.791-1.346-9.418-3.262-13.749-5.695c-2.929-1.648-6.599-1.143-8.979,1.235    l-8.693,8.694l-16.432-16.433l8.694-8.693c2.377-2.377,2.882-6.045,1.235-8.978c-2.432-4.331-4.349-8.958-5.695-13.752    c-0.91-3.235-3.86-5.471-7.221-5.471h-12.294v-23.238h12.294c3.36,0,6.311-2.235,7.221-5.471    c1.347-4.794,3.264-9.421,5.695-13.751c1.646-2.931,1.142-6.599-1.235-8.977l-8.694-8.695l16.433-16.432l8.695,8.694    c2.377,2.377,6.048,2.883,8.978,1.234c4.33-2.433,8.956-4.349,13.748-5.694c3.235-0.909,5.472-3.859,5.472-7.221V65.769h23.238    v12.294c0,3.361,2.236,6.312,5.473,7.221c4.791,1.346,9.418,3.262,13.749,5.695c2.931,1.646,6.599,1.142,8.979-1.235l8.693-8.693    l16.433,16.432l-8.695,8.694c-2.377,2.378-2.882,6.047-1.234,8.979c2.434,4.331,4.35,8.958,5.695,13.749    c0.909,3.235,3.859,5.472,7.221,5.472h12.295V157.614z" fill="#5e87eb" data-original="#000000" class=""></path>
	</g>
</g>
<g xmlns="http://www.w3.org/2000/svg">
	<g>
		<path d="M416.773,105.888c-22.114,0-40.106,17.991-40.106,40.106s17.991,40.106,40.106,40.106    c22.115,0,40.106-17.991,40.106-40.106S438.888,105.888,416.773,105.888z M416.773,171.099c-13.843,0-25.105-11.263-25.105-25.106    c0-13.843,11.263-25.106,25.105-25.106c13.843,0,25.106,11.263,25.106,25.106C441.879,159.837,430.615,171.099,416.773,171.099z" fill="#5e87eb" data-original="#000000" class=""></path>
	</g>
</g>
<g xmlns="http://www.w3.org/2000/svg">
	<g>
		<path d="M145.792,310.861l-20.297-21.539l20.297-21.538c2.84-3.014,2.699-7.76-0.315-10.602c-3.014-2.84-7.761-2.699-10.603,0.314    l-25.145,26.683c-2.722,2.889-2.722,7.398,0,10.288l25.145,26.684c2.838,3.013,7.586,3.157,10.603,0.314    C148.492,318.623,148.633,313.876,145.792,310.861z" fill="#5e87eb" data-original="#000000" class=""></path>
	</g>
</g>
<g xmlns="http://www.w3.org/2000/svg">
	<g>
		<path d="M237.758,284.179l-25.146-26.683c-2.841-3.016-7.588-3.156-10.603-0.314c-3.015,2.841-3.155,7.587-0.314,10.603    l20.296,21.538l-20.297,21.539c-2.84,3.014-2.699,7.76,0.316,10.602c3.016,2.842,7.761,2.699,10.603-0.314l25.145-26.684    C240.481,291.578,240.481,287.068,237.758,284.179z" fill="#5e87eb" data-original="#000000" class=""></path>
	</g>
</g>
<g xmlns="http://www.w3.org/2000/svg">
	<g>
		<path d="M184.026,255.515c-3.932-1.296-8.174,0.849-9.467,4.783l-17.536,53.365c-1.293,3.935,0.849,8.174,4.784,9.468    c3.927,1.293,8.172-0.843,9.467-4.783l17.536-53.365C190.104,261.047,187.961,256.809,184.026,255.515z" fill="#5e87eb" data-original="#000000" class=""></path>
	</g>
</g>
<g xmlns="http://www.w3.org/2000/svg">
	<g>
		<path d="M336.325,279.322c4.143,0,7.5-3.357,7.5-7.5v-13.458c-0.003-6.823-5.554-12.375-12.378-12.375h-26.662    c-2.237-6.866-5.008-13.555-8.277-19.981l18.854-18.853c4.824-4.825,4.824-12.676,0-17.501l-43.782-43.782    c-4.826-4.824-12.677-4.823-17.501,0l-18.853,18.853c-6.428-3.27-13.115-6.039-19.981-8.277v-26.662    c0-6.823-5.551-12.375-12.375-12.375h-61.918c-6.823,0-12.375,5.551-12.375,12.375v26.662c-6.866,2.237-13.553,5.007-19.981,8.278    l-18.853-18.854c-4.824-4.824-12.677-4.824-17.501,0l-43.782,43.782c-2.338,2.337-3.625,5.444-3.625,8.751    s1.287,6.413,3.625,8.751l18.853,18.853c-3.269,6.427-6.039,13.115-8.276,19.981H12.375C5.551,245.989,0,251.54,0,258.364v61.918    c0,6.823,5.551,12.375,12.375,12.375h26.663c2.238,6.867,5.007,13.555,8.276,19.981l-18.852,18.853    c-2.338,2.337-3.625,5.444-3.625,8.75s1.287,6.413,3.625,8.751l43.782,43.782c4.824,4.824,12.677,4.824,17.501,0l18.852-18.853    c6.427,3.269,13.115,6.039,19.981,8.276v26.662c0,6.823,5.551,12.375,12.375,12.375h61.918c6.823,0,12.375-5.551,12.375-12.375    v-26.662c6.867-2.237,13.555-5.008,19.981-8.276l18.853,18.853c4.826,4.824,12.675,4.824,17.501,0l43.782-43.782    c4.824-4.825,4.824-12.676,0-17.5l-18.853-18.855c3.27-6.427,6.039-13.113,8.276-19.98h26.662c6.823,0,12.375-5.551,12.375-12.375    v-13.458c0-4.143-3.357-7.5-7.5-7.5s-7.5,3.357-7.5,7.5v10.832h-29.597c-3.36,0-6.312,2.235-7.221,5.471    c-2.665,9.486-6.457,18.64-11.272,27.207c-1.646,2.931-1.142,6.6,1.235,8.977l20.929,20.931l-40.067,40.067l-20.93-20.93    c-2.378-2.376-6.045-2.883-8.979-1.234c-8.567,4.813-17.72,8.606-27.207,11.272c-3.235,0.909-5.471,3.86-5.471,7.221v29.597    h-56.662v-29.597c0-3.36-2.236-6.312-5.471-7.221c-9.486-2.665-18.64-6.457-27.207-11.272c-2.932-1.648-6.601-1.144-8.979,1.235    l-20.929,20.929l-40.068-40.067l20.929-20.931c2.377-2.377,2.882-6.046,1.235-8.978c-4.813-8.565-8.605-17.719-11.272-27.206    c-0.909-3.236-3.859-5.472-7.22-5.472H15.001V260.99h29.597c3.361,0,6.312-2.236,7.221-5.472    c2.665-9.486,6.457-18.64,11.271-27.207c1.647-2.931,1.142-6.6-1.235-8.979l-20.929-20.929l40.068-40.067l20.93,20.93    c2.377,2.376,6.046,2.883,8.978,1.234c8.57-4.814,17.722-8.607,27.206-11.271c3.236-0.909,5.472-3.859,5.472-7.221V132.41h56.665    v29.598c0,3.361,2.236,6.312,5.472,7.221c9.485,2.664,18.638,6.456,27.206,11.271c2.932,1.648,6.6,1.142,8.979-1.234l20.93-20.93    l40.067,40.067l-20.93,20.929c-2.377,2.378-2.882,6.047-1.234,8.979c4.813,8.568,8.606,17.722,11.272,27.207    c0.909,3.236,3.86,5.472,7.221,5.472h29.597v10.832C328.825,275.965,332.182,279.322,336.325,279.322z" fill="#5e87eb" data-original="#000000" class=""></path>
	</g>
</g>
<g xmlns="http://www.w3.org/2000/svg">
	<g>
		<path d="M190.774,191.26c-4.066-0.747-7.983,1.948-8.732,6.021c-0.749,4.074,1.947,7.983,6.021,8.732    c40.153,7.376,69.298,42.413,69.298,83.308c0,46.709-38.001,84.71-84.71,84.71c-46.709,0-84.71-38.001-84.71-84.71    c0-40.224,28.577-75.151,67.95-83.049c4.061-0.814,6.693-4.768,5.878-8.829c-0.814-4.061-4.767-6.693-8.828-5.878    c-46.356,9.299-80.001,50.411-80.001,97.757c0,54.981,44.731,99.711,99.711,99.711c54.981,0,99.711-44.731,99.711-99.711    C272.362,241.187,238.049,199.946,190.774,191.26z" fill="#5e87eb" data-original="#000000" class=""></path>
	</g>
</g>
<g xmlns="http://www.w3.org/2000/svg">
</g>
<g xmlns="http://www.w3.org/2000/svg">
</g>
<g xmlns="http://www.w3.org/2000/svg">
</g>
<g xmlns="http://www.w3.org/2000/svg">
</g>
<g xmlns="http://www.w3.org/2000/svg">
</g>
<g xmlns="http://www.w3.org/2000/svg">
</g>
<g xmlns="http://www.w3.org/2000/svg">
</g>
<g xmlns="http://www.w3.org/2000/svg">
</g>
<g xmlns="http://www.w3.org/2000/svg">
</g>
<g xmlns="http://www.w3.org/2000/svg">
</g>
<g xmlns="http://www.w3.org/2000/svg">
</g>
<g xmlns="http://www.w3.org/2000/svg">
</g>
<g xmlns="http://www.w3.org/2000/svg">
</g>
<g xmlns="http://www.w3.org/2000/svg">
</g>
<g xmlns="http://www.w3.org/2000/svg">
</g>
</g></svg>